<svg width="100" height="100" viewBox="0 0 100 100" fill="none" xmlns="http://www.w3.org/2000/svg">
<path d="M19.0896 74.8708C23.3042 71.6479 28.0146 69.1068 33.2208 67.2474C38.4271 65.388 43.8812 64.4583 49.5833 64.4583C55.2854 64.4583 60.7396 65.388 65.9458 67.2474C71.1521 69.1068 75.8625 71.6479 80.0771 74.8708C82.9694 71.4827 85.2214 67.6399 86.8328 63.3427C88.4443 59.0455 89.25 54.459 89.25 49.5833C89.25 38.5924 85.3866 29.2335 77.6599 21.5068C69.9332 13.78 60.5743 9.91667 49.5833 9.91667C38.5924 9.91667 29.2335 13.78 21.5068 21.5068C13.78 29.2335 9.91667 38.5924 9.91667 49.5833C9.91667 54.459 10.7224 59.0455 12.3339 63.3427C13.9453 67.6399 16.1972 71.4827 19.0896 74.8708ZM49.5833 54.5417C44.7076 54.5417 40.5964 52.8682 37.2495 49.5214C33.9026 46.1745 32.2292 42.0632 32.2292 37.1875C32.2292 32.3118 33.9026 28.2005 37.2495 24.8536C40.5964 21.5068 44.7076 19.8333 49.5833 19.8333C54.459 19.8333 58.5703 21.5068 61.9172 24.8536C65.2641 28.2005 66.9375 32.3118 66.9375 37.1875C66.9375 42.0632 65.2641 46.1745 61.9172 49.5214C58.5703 52.8682 54.459 54.5417 49.5833 54.5417ZM49.5833 99.1667C42.7243 99.1667 36.2785 97.8651 30.2458 95.262C24.2132 92.6589 18.9656 89.126 14.5031 84.6635C10.0406 80.201 6.50781 74.9535 3.90469 68.9208C1.30156 62.8882 0 56.4424 0 49.5833C0 42.7243 1.30156 36.2785 3.90469 30.2458C6.50781 24.2132 10.0406 18.9656 14.5031 14.5031C18.9656 10.0406 24.2132 6.50781 30.2458 3.90469C36.2785 1.30156 42.7243 0 49.5833 0C56.4424 0 62.8882 1.30156 68.9208 3.90469C74.9535 6.50781 80.201 10.0406 84.6635 14.5031C89.126 18.9656 92.6588 24.2132 95.262 30.2458C97.8651 36.2785 99.1667 42.7243 99.1667 49.5833C99.1667 56.4424 97.8651 62.8882 95.262 68.9208C92.6588 74.9535 89.126 80.201 84.6635 84.6635C80.201 89.126 74.9535 92.6589 68.9208 95.262C62.8882 97.8651 56.4424 99.1667 49.5833 99.1667ZM49.5833 89.25C53.9632 89.25 58.0951 88.6096 61.9792 87.3287C65.8632 86.0477 69.4167 84.209 72.6396 81.8125C69.4167 79.416 65.8632 77.5773 61.9792 76.2964C58.0951 75.0155 53.9632 74.375 49.5833 74.375C45.2035 74.375 41.0715 75.0155 37.1875 76.2964C33.3035 77.5773 29.75 79.416 26.5271 81.8125C29.75 84.209 33.3035 86.0477 37.1875 87.3287C41.0715 88.6096 45.2035 89.25 49.5833 89.25ZM49.5833 44.625C51.7319 44.625 53.5087 43.9226 54.9135 42.5177C56.3184 41.1129 57.0208 39.3361 57.0208 37.1875C57.0208 35.0389 56.3184 33.2622 54.9135 31.8573C53.5087 30.4524 51.7319 29.75 49.5833 29.75C47.4347 29.75 45.658 30.4524 44.2531 31.8573C42.8483 33.2622 42.1458 35.0389 42.1458 37.1875C42.1458 39.3361 42.8483 41.1129 44.2531 42.5177C45.658 43.9226 47.4347 44.625 49.5833 44.625Z" fill="#BEBABA"/>
</svg>
